<?xml version="1.0" encoding="utf-8"?>
<!-- Generator: Adobe Illustrator 22.1.0, SVG Export Plug-In . SVG Version: 6.00 Build 0)  -->
<svg version="1.1" id="Layer_1" xmlns="http://www.w3.org/2000/svg" xmlns:xlink="http://www.w3.org/1999/xlink" x="0px" y="0px"
	 viewBox="0 0 864 216" style="enable-background:new 0 0 864 216;" xml:space="preserve">
<style type="text/css">
	.st0{clip-path:url(#SVGID_2_);}
	.st1{clip-path:url(#SVGID_4_);fill:#FFFFFF;}
	.st2{clip-path:url(#SVGID_4_);fill:none;stroke:#A50000;stroke-width:0.4583;stroke-miterlimit:10;}
	.st3{clip-path:url(#SVGID_4_);fill:#A50000;}
	.st4{fill:#A50000;}
</style>
<g>
	<g>
		<defs>
			<rect id="SVGID_1_" x="17" y="9" width="198" height="198"/>
		</defs>
		<clipPath id="SVGID_2_">
			<use xlink:href="#SVGID_1_"  style="overflow:visible;"/>
		</clipPath>
		<g class="st0">
			<defs>
				<rect id="SVGID_3_" x="17" y="9" width="198" height="198"/>
			</defs>
			<clipPath id="SVGID_4_">
				<use xlink:href="#SVGID_3_"  style="overflow:visible;"/>
			</clipPath>
			<path class="st1" d="M198.5,108c0,45.6-36.9,82.5-82.5,82.5S33.5,153.6,33.5,108S70.4,25.5,116,25.5S198.5,62.4,198.5,108"/>
			<circle class="st2" cx="116" cy="108" r="82.5"/>
			<path class="st3" d="M87.1,108.5c0.3,0.2,0.6,0.5,0.7,0.8c0.1,0.3,0.2,0.6,0.2,0.8c0,0.4-0.1,0.7-0.2,1c-0.1,0.3-0.4,0.6-0.6,0.8
				c-0.3,0.2-0.6,0.4-1,0.5c-0.4,0.1-0.8,0.2-1.3,0.2c-0.2,0-0.4,0-0.7,0c-0.3,0-0.5-0.1-0.8-0.1c-0.3-0.1-0.5-0.1-0.8-0.2
				c-0.2-0.1-0.5-0.2-0.6-0.3c0-0.1,0-0.2-0.1-0.3c0-0.1,0-0.2,0-0.3c0-0.2,0-0.4,0.1-0.7c0.1-0.2,0.1-0.5,0.2-0.7h0.4
				c0,0.1,0,0.2,0,0.2c0,0.1,0,0.1,0,0.1c0,0.5,0.2,0.9,0.6,1.2c0.4,0.3,0.9,0.5,1.5,0.5h0.1c0.3,0,0.5-0.1,0.8-0.1
				c0.3-0.1,0.5-0.2,0.7-0.3c0.2-0.1,0.3-0.3,0.4-0.5c0.1-0.2,0.2-0.4,0.2-0.6c0-0.5-0.2-0.8-0.6-1.1l-3.1-2.2
				c-0.3-0.2-0.6-0.5-0.7-0.8c-0.1-0.3-0.2-0.6-0.2-0.8c0-0.3,0.1-0.5,0.2-0.8c0.1-0.3,0.3-0.5,0.6-0.7c0.3-0.2,0.6-0.4,0.9-0.5
				c0.4-0.1,0.8-0.2,1.3-0.2c0.2,0,0.5,0,0.7,0c0.3,0,0.5,0.1,0.7,0.1h0.8v1.7h-0.4c0-0.4-0.2-0.7-0.5-0.9s-0.7-0.3-1.2-0.3
				c-0.3,0-0.5,0-0.8,0.1c-0.2,0.1-0.4,0.2-0.6,0.3c-0.2,0.1-0.3,0.3-0.4,0.4c-0.1,0.2-0.1,0.3-0.1,0.5c0,0.2,0,0.3,0.1,0.5
				c0.1,0.2,0.3,0.4,0.5,0.6L87.1,108.5z"/>
			<path class="st3" d="M116.8,73.2c0.9,0,1.6,0.2,2.1,0.7c0.5,0.4,0.8,1.1,0.8,1.9c0,0.4-0.1,0.7-0.2,1c-0.2,0.3-0.4,0.6-0.6,0.7
				c-0.3,0.2-0.5,0.3-0.9,0.4c-0.3,0.1-0.7,0.2-1,0.2c-0.2,0-0.4,0-0.6-0.1c-0.2-0.1-0.4-0.1-0.6-0.3v-0.2c0,0,0.1,0,0.2,0
				c0.1,0,0.2,0,0.4,0c0.2,0,0.4,0,0.6,0c0.2,0,0.4-0.1,0.6-0.2c0.2-0.1,0.4-0.2,0.6-0.4c0.2-0.2,0.3-0.4,0.4-0.7v0
				c0-0.2,0.1-0.4,0.1-0.6v-0.1c0-0.6-0.2-1-0.5-1.3c-0.3-0.3-0.7-0.5-1.2-0.5h-1.4v7.4c0,0.2,0.1,0.3,0.2,0.5
				c0.1,0.1,0.3,0.2,0.5,0.2h0.3v0.3h-3.2v-0.3h0.3c0.2,0,0.4-0.1,0.5-0.2c0.1-0.1,0.2-0.3,0.2-0.5v-7c0-0.2-0.1-0.3-0.2-0.4
				c-0.1-0.1-0.3-0.2-0.5-0.2h-0.3v-0.3H116.8z"/>
			<path class="st3" d="M118.2,138.9c0.3,0.2,0.6,0.5,0.7,0.8c0.1,0.3,0.2,0.6,0.2,0.8c0,0.4-0.1,0.7-0.2,1
				c-0.2,0.3-0.4,0.6-0.6,0.8c-0.3,0.2-0.6,0.4-1,0.5c-0.4,0.1-0.8,0.2-1.3,0.2c-0.2,0-0.4,0-0.7,0c-0.3,0-0.5-0.1-0.8-0.1
				c-0.3-0.1-0.5-0.1-0.8-0.2c-0.2-0.1-0.5-0.2-0.6-0.3c0-0.1,0-0.2-0.1-0.3c0-0.1,0-0.2,0-0.3c0-0.2,0-0.4,0.1-0.7
				c0.1-0.2,0.1-0.5,0.2-0.7h0.4c0,0.1,0,0.2,0,0.2c0,0.1,0,0.1,0,0.1c0,0.5,0.2,0.9,0.6,1.2c0.4,0.3,0.9,0.5,1.5,0.5h0.1
				c0.3,0,0.5-0.1,0.8-0.1c0.3-0.1,0.5-0.2,0.7-0.3c0.2-0.1,0.3-0.3,0.4-0.5c0.1-0.2,0.2-0.4,0.2-0.6c0-0.5-0.2-0.8-0.6-1.1
				l-3.1-2.2c-0.3-0.2-0.6-0.5-0.7-0.8c-0.1-0.3-0.2-0.6-0.2-0.8c0-0.3,0.1-0.5,0.2-0.8c0.1-0.3,0.3-0.5,0.6-0.7
				c0.3-0.2,0.6-0.4,0.9-0.5c0.4-0.1,0.8-0.2,1.3-0.2c0.2,0,0.5,0,0.7,0c0.3,0,0.5,0.1,0.7,0.1h0.8v1.7H118c0-0.4-0.2-0.7-0.5-0.9
				c-0.3-0.2-0.7-0.3-1.2-0.3c-0.3,0-0.5,0-0.8,0.1c-0.2,0.1-0.4,0.2-0.6,0.3c-0.2,0.1-0.3,0.3-0.4,0.4c-0.1,0.2-0.1,0.3-0.1,0.5
				c0,0.2,0,0.3,0.1,0.5c0.1,0.2,0.3,0.4,0.5,0.6L118.2,138.9z"/>
			<path class="st3" d="M146.4,103.4c0.7,0,1.3,0.1,1.9,0.3c0.6,0.2,1.1,0.5,1.5,0.9c0.4,0.4,0.7,0.9,0.9,1.4
				c0.2,0.6,0.3,1.2,0.3,1.8c0,0.7-0.1,1.3-0.3,1.8c-0.2,0.6-0.5,1-0.9,1.4c-0.4,0.4-0.9,0.7-1.5,0.9c-0.6,0.2-1.2,0.3-1.9,0.3H142
				v-0.3h0.3c0.2,0,0.4-0.1,0.5-0.2c0.1-0.1,0.2-0.3,0.2-0.5v-7c0-0.2-0.1-0.3-0.2-0.4c-0.1-0.1-0.3-0.2-0.5-0.2H142v-0.3H146.4z
				 M144,111.8h2.4c0.5,0,1-0.1,1.4-0.3c0.4-0.2,0.8-0.5,1.1-0.8c0.3-0.3,0.5-0.8,0.7-1.2c0.2-0.5,0.3-1,0.3-1.6
				c0-0.6-0.1-1.1-0.3-1.6c-0.2-0.5-0.4-0.9-0.7-1.2c-0.3-0.3-0.7-0.6-1.1-0.8c-0.4-0.2-0.9-0.3-1.4-0.3H144V111.8z"/>
			<path class="st3" d="M41.4,90.5l22.6,22.6h9.1v-12.7l-26-26C44.7,79.5,42.7,84.9,41.4,90.5"/>
			<path class="st3" d="M95,94.1l-2-2V34.9c5-1.6,10.1-2.6,15.3-3.1v57.5c-4.1,1.7-7.5,4.6-9.7,8.4L95,94.1z"/>
			<path class="st3" d="M65.2,68.2c11.9,11.9,32,32,32,32H75.7L48.1,72.6c2.4-4.6,5.3-9,8.6-13L65.2,68.2z"/>
			<path class="st3" d="M54.6,113.1h6.7L41,92.7c-1.4,6.7-1.8,13.6-1.4,20.4H54.6z"/>
			<path class="st3" d="M85.4,84.5c-4.4-4.4-9.7-9.7-9.7-9.7v-32c4.8-3,10-5.5,15.4-7.3v54.7C91.1,90.3,88.5,87.6,85.4,84.5"/>
			<path class="st3" d="M69,68.2c-4.5-4.5-10.7-10.7-10.7-10.7c4.5-5.2,9.7-9.7,15.4-13.5v28.9L69,68.2z"/>
			<path class="st3" d="M98.4,118c-0.4-0.7-0.8-1.5-1.1-2.3H39.8c0.5,5.2,1.6,10.3,3.1,15.3h57.2l5.5-5.5
				C102.6,123.7,100.1,121.1,98.4,118"/>
			<path class="st3" d="M98.5,182.6l22.6-22.6v-9.1h-12.7l-26,26C87.5,179.3,92.9,181.3,98.5,182.6"/>
			<path class="st3" d="M121.1,169.4v15.1c-6.8,0.5-13.7,0-20.4-1.4l20.4-20.4V169.4z"/>
			<path class="st3" d="M43.6,132.9h54.7l-15.4,15.4h-32C47.9,143.5,45.4,138.3,43.6,132.9"/>
			<path class="st3" d="M76.2,155c2.7-2.7,4.8-4.8,4.8-4.8H52.1c3.8,5.7,8.3,10.9,13.5,15.4C65.5,165.6,71.7,159.5,76.2,155"/>
			<path class="st3" d="M80.6,175.9c-4.6-2.4-9-5.3-13-8.6l40.6-40.6v21.6L80.6,175.9"/>
			<path class="st3" d="M137,121.9l2,2v57.2c-5,1.6-10.1,2.6-15.3,3.1v-57.5c4.1-1.7,7.5-4.6,9.7-8.4L137,121.9z"/>
			<path class="st3" d="M144.1,115.8h12.2l27.6,27.6c-2.4,4.6-5.3,9-8.6,13l-40.6-40.6H144.1z"/>
			<path class="st3" d="M163.2,102.9h4.8l22.6,22.6c-1.3,5.5-3.2,10.9-5.7,16.1l-26-26v-12.7H163.2z"/>
			<path class="st3" d="M177.4,102.9h15.1c0.5,6.8,0,13.7-1.4,20.4l-20.4-20.4H177.4z"/>
			<path class="st3" d="M146.6,131.5l9.7,9.7v32c-4.8,3-10,5.5-15.4,7.3v-54.7L146.6,131.5z"/>
			<path class="st3" d="M163,147.8l10.7,10.7c-4.5,5.2-9.7,9.7-15.4,13.5V143L163,147.8z"/>
			<path class="st3" d="M176,60.3c1.4,1.8,2.7,3.6,3.9,5.4H151l15.4-15.4C169.9,53.4,173.1,56.7,176,60.3"/>
			<path class="st3" d="M120.7,43.6c5.2-5.2,10.7-10.7,10.7-10.7c-6.7-1.4-13.6-1.8-20.4-1.4v21.8C110.9,53.4,115.7,48.6,120.7,43.6
				"/>
			<path class="st3" d="M156.8,43.2c2.6,1.7,5.2,3.5,7.6,5.5l-40.6,40.6V67.7l27.6-27.6C153.2,41,155,42.1,156.8,43.2"/>
			<path class="st3" d="M146.2,42.5c-7,7-22.6,22.6-22.6,22.6h-12.7v-9.1l22.6-22.6c5.5,1.3,10.9,3.2,16.1,5.7
				C149.6,39.2,148.3,40.5,146.2,42.5"/>
			<path class="st3" d="M131.8,85h57.2c1.6,5,2.6,10.1,3.1,15.3h-57.5c-1.7-4.1-4.6-7.5-8.4-9.7L131.8,85"/>
			<path class="st3" d="M181.1,67.7c3,4.8,5.5,10,7.3,15.4h-54.7l15.4-15.4H181.1"/>
			<path class="st3" d="M116,27c-44.7,0-81,36.3-81,81s36.3,81,81,81s81-36.3,81-81S160.7,27,116,27 M116,186.5
				c-43.4,0-78.5-35.1-78.5-78.5c0-43.4,35.1-78.5,78.5-78.5s78.5,35.1,78.5,78.5C194.5,151.4,159.4,186.5,116,186.5"/>
			<path class="st3" d="M116,89.6c-10.1,0-18.4,8.2-18.4,18.4s8.2,18.4,18.4,18.4s18.4-8.2,18.4-18.4S126.1,89.6,116,89.6
				 M116,124.5c-9.1,0-16.5-7.4-16.5-16.5s7.4-16.5,16.5-16.5s16.5,7.4,16.5,16.5S125.1,124.5,116,124.5"/>
		</g>
	</g>
</g>
<g>
	<g>
		<path class="st4" d="M228.4,59.6c0.2,0,0.5,0,0.7,0c0.3,0,0.5-0.1,0.8-0.1c0.3,0,0.5-0.1,0.7-0.2c0.2-0.1,0.4-0.1,0.5-0.2v3.1
			h-0.6v-0.6c0-0.3-0.1-0.5-0.3-0.7c-0.2-0.2-0.4-0.3-0.7-0.3h-4v11.6c0,0.3,0.1,0.5,0.4,0.7c0.2,0.2,0.5,0.3,0.8,0.3h0.5V74h-5.2
			v-0.6h0.5c0.3,0,0.6-0.1,0.8-0.3c0.2-0.2,0.3-0.5,0.4-0.8V60.7h-4c-0.3,0-0.5,0.1-0.7,0.3c-0.2,0.2-0.3,0.4-0.3,0.7v0.6h-0.7v-3.1
			c0.1,0,0.3,0.1,0.5,0.2c0.2,0.1,0.5,0.1,0.7,0.2c0.3,0,0.5,0.1,0.8,0.1c0.3,0,0.5,0,0.7,0H228.4z"/>
		<path class="st4" d="M245.3,74v-0.6h0.5c0.3,0,0.6-0.1,0.8-0.3c0.2-0.2,0.3-0.5,0.4-0.8v-4.9h-8.2v4.9c0,0.3,0.1,0.6,0.4,0.8
			c0.2,0.2,0.5,0.3,0.8,0.3h0.5V74h-5.2v-0.6h0.5c0.3,0,0.6-0.1,0.8-0.3c0.2-0.2,0.3-0.5,0.4-0.8v-11c0-0.3-0.1-0.5-0.4-0.7
			c-0.2-0.2-0.5-0.3-0.8-0.3h-0.5v-0.6h5.2v0.6h-0.5c-0.3,0-0.6,0.1-0.8,0.3c-0.2,0.2-0.3,0.4-0.3,0.7v5.1h8.2v-5
			c0-0.3-0.1-0.5-0.4-0.7c-0.2-0.2-0.5-0.3-0.8-0.3h-0.5v-0.6h5.2v0.6H250c-0.3,0-0.6,0.1-0.8,0.3s-0.3,0.4-0.4,0.7v11
			c0,0.3,0.1,0.6,0.4,0.8c0.2,0.2,0.5,0.3,0.8,0.3h0.5V74L245.3,74z"/>
		<path class="st4" d="M264.9,74.1h-9.8v-0.6h0.5c0.3,0,0.6-0.1,0.8-0.3c0.2-0.2,0.3-0.5,0.3-0.8V61.3c0-0.3-0.1-0.5-0.3-0.7
			s-0.5-0.3-0.8-0.3h-0.5v-0.6h7c0.2,0,0.5,0,0.7,0c0.3,0,0.5-0.1,0.8-0.1s0.5-0.1,0.7-0.2c0.2-0.1,0.4-0.1,0.5-0.2v3.1h-0.6v-0.6
			c0-0.3-0.1-0.5-0.3-0.7c-0.2-0.2-0.4-0.3-0.7-0.3h-4.6v5.5h3.8c0.3,0,0.4-0.1,0.6-0.3c0.1-0.2,0.2-0.3,0.2-0.5V65h0.6v3.7h-0.6
			v-0.5c0-0.2-0.1-0.4-0.2-0.5s-0.3-0.2-0.5-0.3h-3.8v5.5h3.4c0.5,0,1-0.1,1.4-0.2c0.4-0.1,0.7-0.3,1-0.5c0.3-0.2,0.5-0.5,0.7-0.8
			c0.2-0.3,0.4-0.7,0.5-1h0.7L264.9,74.1z"/>
	</g>
	<path class="st4" d="M714.7,146.2c0.6,0.5,1,1,1.2,1.5s0.3,1,0.3,1.5c0,0.7-0.1,1.3-0.4,1.9c-0.3,0.6-0.6,1.1-1.1,1.5
		c-0.5,0.4-1.1,0.7-1.8,0.9c-0.7,0.2-1.5,0.3-2.3,0.3c-0.4,0-0.8,0-1.2-0.1c-0.5,0-0.9-0.1-1.4-0.2c-0.5-0.1-0.9-0.3-1.3-0.4
		c-0.4-0.2-0.8-0.4-1.1-0.6c0-0.1-0.1-0.3-0.1-0.5c0-0.2,0-0.3,0-0.5c0-0.4,0-0.8,0.1-1.3s0.2-0.9,0.4-1.3h0.7c0,0.2,0,0.3,0,0.4
		c0,0.1,0,0.2,0,0.3c0,1,0.3,1.7,1,2.3c0.7,0.6,1.6,0.9,2.6,0.9h0.2c0.5,0,1-0.1,1.4-0.2c0.5-0.1,0.8-0.3,1.2-0.6
		c0.3-0.3,0.6-0.6,0.8-0.9c0.2-0.4,0.3-0.8,0.3-1.2c0-0.8-0.4-1.5-1.1-2l-5.5-4.2c-0.6-0.5-1-1-1.3-1.5c-0.3-0.6-0.4-1.1-0.4-1.5
		c0-0.5,0.1-1,0.4-1.5c0.2-0.5,0.6-0.9,1-1.3c0.4-0.4,1-0.7,1.6-0.9c0.7-0.2,1.4-0.4,2.3-0.4c0.4,0,0.8,0,1.2,0.1
		c0.4,0,0.9,0.1,1.2,0.2h1.4v3.3h-0.8c0-0.8-0.3-1.3-0.9-1.8c-0.6-0.4-1.3-0.6-2.1-0.6c-0.5,0-0.9,0.1-1.3,0.2
		c-0.4,0.1-0.7,0.3-1,0.6c-0.3,0.2-0.5,0.5-0.7,0.8s-0.2,0.6-0.2,0.9c0,0.3,0.1,0.6,0.2,1c0.1,0.4,0.4,0.7,0.9,1L714.7,146.2z"/>
	<path class="st4" d="M727.6,136.3c1.3,0,2.4,0.2,3.5,0.6c1.1,0.4,2,1,2.7,1.8c0.8,0.8,1.3,1.7,1.8,2.8c0.4,1.1,0.6,2.3,0.6,3.6
		c0,1.3-0.2,2.5-0.6,3.6c-0.4,1.1-1,2-1.8,2.8c-0.8,0.8-1.7,1.4-2.7,1.8s-2.2,0.6-3.5,0.6s-2.4-0.2-3.5-0.6s-2-1-2.7-1.8
		c-0.8-0.8-1.3-1.7-1.8-2.8c-0.4-1.1-0.6-2.3-0.6-3.6c0-1.3,0.2-2.5,0.6-3.6c0.4-1.1,1-2,1.8-2.8c0.8-0.8,1.7-1.4,2.7-1.8
		C725.2,136.5,726.3,136.3,727.6,136.3z M727.6,152.6c1,0,1.9-0.2,2.7-0.6s1.5-0.9,2-1.5c0.6-0.7,1-1.5,1.3-2.4
		c0.3-0.9,0.5-2,0.5-3.1c0-1.2-0.2-2.2-0.5-3.1c-0.3-0.9-0.7-1.7-1.3-2.4c-0.6-0.7-1.2-1.2-2-1.5c-0.8-0.4-1.7-0.6-2.7-0.6
		c-1,0-1.8,0.2-2.6,0.6c-0.8,0.4-1.5,0.9-2,1.5c-0.6,0.7-1,1.5-1.3,2.4c-0.3,0.9-0.5,2-0.5,3.1c0,1.2,0.2,2.2,0.5,3.1
		c0.3,0.9,0.7,1.7,1.3,2.4s1.2,1.2,2,1.5S726.7,152.6,727.6,152.6z"/>
	<path class="st4" d="M754.7,146.1l-0.3,4c-0.3,0.5-0.7,1-1.1,1.5c-0.4,0.4-0.9,0.8-1.5,1.1c-0.6,0.3-1.2,0.6-1.9,0.8
		c-0.7,0.2-1.4,0.3-2.3,0.3c-1.2,0-2.4-0.2-3.5-0.6s-2-1-2.7-1.8c-0.8-0.8-1.4-1.7-1.8-2.8c-0.4-1.1-0.6-2.3-0.6-3.6
		c0-1.3,0.2-2.5,0.6-3.6c0.4-1.1,1-2,1.8-2.8c0.8-0.8,1.7-1.4,2.7-1.8c1.1-0.4,2.3-0.6,3.6-0.6c1.2,0,2.3,0.2,3.2,0.5
		s1.8,0.7,2.5,1.2l0.5,3.6h-0.6c-0.4-1.4-1-2.4-2.1-3.1c-1-0.7-2.2-1.1-3.6-1.1c-1,0-1.9,0.2-2.7,0.5s-1.5,0.9-2.1,1.5
		c-0.6,0.7-1,1.5-1.3,2.4c-0.3,0.9-0.5,2-0.5,3.1c0,1.1,0.2,2.2,0.5,3.1c0.3,0.9,0.8,1.7,1.3,2.4c0.6,0.7,1.2,1.2,2,1.6
		s1.6,0.6,2.6,0.6c0.8,0,1.6-0.1,2.3-0.3c0.7-0.2,1.4-0.6,2-1.1c0.6-0.5,1.1-1.2,1.5-2c0.4-0.8,0.7-1.8,0.8-3H754.7z"/>
	<path class="st4" d="M764.2,153.4h-5.5v-0.6h0.5c0.4,0,0.7-0.1,0.9-0.4s0.4-0.5,0.4-0.9v-13c0-0.4-0.2-0.7-0.4-0.9
		s-0.5-0.4-0.9-0.4h-0.5v-0.6h5.5v0.6h-0.5c-0.4,0-0.7,0.1-0.9,0.4s-0.4,0.6-0.4,0.9v13c0,0.4,0.2,0.7,0.4,0.9s0.5,0.4,0.9,0.4h0.5
		V153.4z"/>
	<path class="st4" d="M778.1,153.4H768v-0.6h0.5c0.4,0,0.7-0.1,0.9-0.4s0.4-0.6,0.4-0.9v-13.1c0-0.3-0.2-0.6-0.4-0.8
		c-0.2-0.2-0.5-0.3-0.9-0.3h-0.5v-0.6h7.1c0.2,0,0.5,0,0.8,0s0.6-0.1,0.9-0.1c0.3,0,0.5-0.1,0.8-0.2c0.2-0.1,0.4-0.1,0.6-0.2v3.5
		h-0.6v-0.6c0-0.3-0.1-0.6-0.3-0.8c-0.2-0.2-0.5-0.4-0.8-0.4h-4.6v6.8h3.7c0.3,0,0.5-0.1,0.7-0.3c0.2-0.2,0.3-0.4,0.3-0.7v-0.5h0.6
		v4.1h-0.6v-0.6c0-0.3-0.1-0.5-0.3-0.7c-0.2-0.2-0.4-0.3-0.6-0.3h-3.8v6.6h3.1c0.6,0,1.1-0.1,1.5-0.2s0.8-0.4,1.1-0.6
		c0.3-0.3,0.6-0.6,0.8-1c0.2-0.4,0.4-0.8,0.6-1.2h0.6L778.1,153.4z"/>
	<path class="st4" d="M793.7,136.6c0.2,0,0.5,0,0.8-0.1c0.3,0,0.6-0.1,0.9-0.1c0.3-0.1,0.5-0.1,0.8-0.2s0.4-0.1,0.6-0.2v3.5h-0.6
		v-0.6c0-0.3-0.1-0.6-0.3-0.8c-0.2-0.2-0.5-0.3-0.8-0.4h-4.3v13.8c0,0.4,0.2,0.7,0.4,0.9c0.2,0.2,0.5,0.4,0.9,0.4h0.5v0.6h-5.5v-0.6
		h0.5c0.3,0,0.6-0.1,0.9-0.4c0.2-0.2,0.4-0.5,0.4-0.9v-13.8h-4.3c-0.3,0-0.6,0.1-0.8,0.4c-0.2,0.2-0.3,0.5-0.3,0.8v0.6h-0.6V136
		c0.1,0.1,0.3,0.1,0.6,0.2s0.5,0.1,0.8,0.2c0.3,0,0.6,0.1,0.9,0.1c0.3,0,0.6,0.1,0.8,0.1H793.7z"/>
	<path class="st4" d="M815.7,136.6v0.6h-0.5c-0.5,0-0.9,0.1-1.3,0.4c-0.4,0.3-0.7,0.6-0.9,0.9l-4.6,7.5v5.5c0,0.4,0.1,0.7,0.4,0.9
		c0.2,0.2,0.5,0.4,0.9,0.4h0.5v0.6h-5.5v-0.6h0.5c0.4,0,0.6-0.1,0.9-0.4c0.2-0.2,0.4-0.5,0.4-0.9v-5.6l-4.4-7.4
		c-0.2-0.3-0.5-0.6-0.9-0.9s-0.8-0.4-1.3-0.4h-0.5v-0.6h6.2v0.6H805c-0.2,0-0.4,0.1-0.5,0.2c-0.1,0.2-0.2,0.3-0.2,0.6
		c0,0.1,0,0.3,0.1,0.4l3.3,6.2l3.6-6.3l0,0c0-0.1,0.1-0.2,0.1-0.3c0-0.2-0.1-0.4-0.2-0.6c-0.2-0.2-0.3-0.2-0.5-0.2h-0.5v-0.6
		L815.7,136.6z"/>
	<path class="st4" d="M240.9,106.7c1.4,1.2,2.4,2.4,2.8,3.7c0.5,1.3,0.7,2.6,0.7,3.8c0,1.7-0.3,3.2-0.9,4.7s-1.5,2.6-2.6,3.6
		c-1.1,1-2.5,1.8-4.1,2.3c-1.6,0.6-3.4,0.8-5.4,0.8c-0.9,0-1.8-0.1-2.9-0.2c-1.1-0.1-2.2-0.3-3.3-0.6c-1.1-0.3-2.1-0.6-3.1-1.1
		c-1-0.4-1.8-1-2.5-1.6c-0.1-0.4-0.2-0.8-0.2-1.2c0-0.4-0.1-0.8-0.1-1.3c0-1,0.1-2,0.3-3.2c0.2-1.2,0.5-2.3,0.9-3.3h1.6
		c0,0.4-0.1,0.7-0.1,1c0,0.3,0,0.5,0,0.7c0,2.4,0.8,4.4,2.4,5.8c1.6,1.4,3.7,2.1,6.1,2.1h0.5c1.1,0,2.2-0.2,3.3-0.6
		c1-0.4,2-0.9,2.7-1.5c0.8-0.6,1.4-1.4,1.8-2.3c0.5-0.9,0.7-1.9,0.7-3c0-2.1-0.8-3.8-2.5-5L224.3,100c-1.4-1.2-2.4-2.4-2.9-3.8
		c-0.6-1.4-0.9-2.7-0.9-3.9c0-1.3,0.3-2.5,0.8-3.8c0.5-1.2,1.3-2.3,2.4-3.3c1-1,2.3-1.8,3.8-2.4c1.5-0.6,3.3-0.9,5.3-0.9
		c0.9,0,1.9,0.1,2.9,0.1c1,0.1,2,0.3,2.9,0.4h3.2v8.2H240c0-1.9-0.7-3.3-2.1-4.4c-1.4-1.1-3-1.6-4.9-1.6c-1.1,0-2.2,0.2-3.1,0.5
		c-0.9,0.3-1.7,0.8-2.4,1.4c-0.7,0.6-1.2,1.2-1.6,2c-0.4,0.7-0.5,1.5-0.5,2.4c0,0.7,0.2,1.5,0.5,2.5c0.3,0.9,1,1.8,2.1,2.6
		L240.9,106.7z"/>
	<path class="st4" d="M278.9,120.1c0.5,1.1,1.1,1.9,1.9,2.4c0.7,0.5,1.4,0.7,2.1,0.7h1v1.6h-13v-1.6h1c0.4,0,0.8-0.2,1.2-0.5
		c0.4-0.3,0.6-0.8,0.6-1.4c0-0.3-0.1-0.6-0.2-1l-3.1-7.4h-14.1l-3.1,7.3c-0.2,0.4-0.2,0.7-0.2,1.1c0,0.6,0.2,1.1,0.5,1.4
		c0.4,0.3,0.8,0.5,1.2,0.5h1v1.6h-12.1v-1.6h1c0.7,0,1.4-0.2,2.2-0.7c0.8-0.5,1.4-1.3,2-2.4l12.1-25.9c0.4-0.8,0.8-1.6,1.1-2.4
		c0.3-0.7,0.5-1.4,0.8-2.1c0.2-0.7,0.3-1.3,0.4-1.8h1.3L278.9,120.1z M269.3,110.2l-5.8-14.2l-6,14.2H269.3z"/>
	<path class="st4" d="M286.7,124.8v-1.6h1.3c0.9,0,1.7-0.3,2.4-0.8s1-1.1,1.1-1.9V93.1c-0.1-0.7-0.4-1.3-1.1-1.9
		c-0.7-0.5-1.5-0.8-2.4-0.8h-1.3v-1.6h14.2v1.6h-1.3c-0.9,0-1.6,0.3-2.3,0.8c-0.7,0.5-1,1.1-1.1,1.8v27.6c0,0.7,0.4,1.3,1,1.9
		s1.4,0.8,2.4,0.8h1.3v1.6H286.7z"/>
	<path class="st4" d="M346.3,88.9v1.6h-1.4c-0.8,0-1.4,0.2-1.9,0.7c-0.5,0.5-0.8,1.1-0.9,1.7v24.8c0,0.9,0,1.9,0.1,2.8
		c0.1,0.9,0.1,1.8,0.2,2.5c0.1,0.9,0.2,1.7,0.3,2.6h-1.3l-29.7-28.1v23.2c0.1,0.7,0.4,1.3,0.9,1.8c0.5,0.5,1.1,0.8,1.9,0.8h1.5v1.6
		h-12v-1.6h1.5c0.7,0,1.3-0.3,1.9-0.8s0.8-1.1,0.9-1.8v-25c0-1,0-1.9-0.1-2.9c-0.1-0.9-0.2-1.8-0.2-2.5c-0.1-0.8-0.2-1.7-0.4-2.5
		h1.4l29.6,27.9v-23c-0.1-0.7-0.4-1.3-0.9-1.7c-0.5-0.5-1.1-0.7-1.9-0.7h-1.5v-1.6L346.3,88.9z"/>
	<path class="st4" d="M374.7,88.7c0.6,0,1.2,0,1.9-0.1c0.7-0.1,1.3-0.2,2-0.3s1.3-0.2,1.8-0.4c0.6-0.1,1-0.3,1.3-0.4v7.9h-1.6V94
		c0-0.7-0.2-1.3-0.7-1.7s-1-0.7-1.8-0.8h-10v29.1c0,0.7,0.3,1.3,0.9,1.9c0.6,0.5,1.2,0.8,2,0.8h1.2v1.6h-13v-1.6h1.2
		c0.8,0,1.5-0.3,2-0.8c0.5-0.5,0.8-1.2,0.9-1.9v-29h-10.1c-0.7,0-1.3,0.3-1.7,0.8c-0.4,0.5-0.7,1.1-0.7,1.7v1.4h-1.7v-7.9
		c0.3,0.1,0.8,0.3,1.3,0.4c0.6,0.1,1.2,0.3,1.8,0.4c0.7,0.1,1.3,0.2,2,0.3c0.7,0.1,1.3,0.1,1.9,0.1H374.7z"/>
	<path class="st4" d="M421.4,82.8c4,0,7.1,1,9.3,3.1s3.3,5,3.3,8.7c0,1.8-0.3,3.4-1,4.8c-0.7,1.4-1.6,2.6-2.7,3.4
		c-1.1,0.8-2.4,1.5-3.8,2.1c-1.4,0.5-2.9,0.8-4.5,0.8c-1,0-1.8-0.1-2.6-0.4c-0.8-0.3-1.7-0.7-2.7-1.2v-0.8c0.2,0.1,0.4,0.1,0.7,0.2
		c0.4,0.1,1,0.2,1.7,0.2c0.7,0,1.5-0.1,2.4-0.2c0.9-0.1,1.8-0.4,2.7-0.9c0.9-0.5,1.7-1.1,2.4-1.9c0.7-0.8,1.3-1.9,1.8-3.2v0.1
		c0.2-0.8,0.3-1.8,0.3-2.9v-0.5c-0.1-2.6-0.7-4.7-2-6.2c-1.2-1.5-3-2.3-5.3-2.3h-6.3v34.5c0.1,0.9,0.4,1.6,1,2.3
		c0.6,0.6,1.4,0.9,2.3,0.9h1.3v1.6h-13.9v-1.6h1.3c0.9,0,1.7-0.3,2.3-0.9c0.6-0.6,0.9-1.4,1-2.3V87.3c-0.1-0.8-0.4-1.5-1-2
		c-0.6-0.6-1.3-0.8-2.2-0.8h-1.3v-1.6H421.4z"/>
	<path class="st4" d="M460.8,125.1h-24.5v-1.6h1.3c0.8,0,1.5-0.3,2-0.8c0.5-0.5,0.8-1.2,0.8-1.9V93.1c0-0.7-0.3-1.3-0.8-1.8
		c-0.5-0.5-1.2-0.8-2-0.8h-1.3V89h17.6c0.6,0,1.2,0,1.9-0.1c0.7-0.1,1.3-0.2,2-0.3c0.7-0.1,1.3-0.2,1.8-0.4c0.5-0.1,1-0.3,1.3-0.4
		v7.9h-1.6v-1.4c0-0.7-0.2-1.3-0.7-1.7s-1-0.7-1.8-0.8h-11.6v13.8h9.5c0.6,0,1.1-0.2,1.4-0.6c0.3-0.4,0.5-0.8,0.5-1.4v-1.3h1.6v9.2
		h-1.6v-1.3c0-0.5-0.2-1-0.5-1.3c-0.3-0.4-0.8-0.6-1.4-0.7h-9.5V122h8.6c1.3,0,2.5-0.2,3.4-0.6c0.9-0.3,1.7-0.8,2.4-1.4
		c0.7-0.6,1.3-1.2,1.8-2c0.5-0.8,0.9-1.7,1.3-2.6h1.7L460.8,125.1z"/>
	<path class="st4" d="M489.7,88.7c0.6,0,1.2,0,1.9-0.1c0.7-0.1,1.3-0.2,2-0.3s1.3-0.2,1.8-0.4c0.6-0.1,1-0.3,1.3-0.4v7.9h-1.6V94
		c0-0.7-0.2-1.3-0.7-1.7s-1-0.7-1.8-0.8h-10v29.1c0,0.7,0.3,1.3,0.9,1.9c0.6,0.5,1.2,0.8,2,0.8h1.2v1.6h-13v-1.6h1.2
		c0.8,0,1.5-0.3,2-0.8s0.8-1.2,0.9-1.9v-29h-10.1c-0.7,0-1.3,0.3-1.7,0.8c-0.4,0.5-0.7,1.1-0.7,1.7v1.4h-1.7v-7.9
		c0.3,0.1,0.8,0.3,1.3,0.4c0.6,0.1,1.2,0.3,1.8,0.4s1.3,0.2,2,0.3c0.7,0.1,1.3,0.1,1.9,0.1H489.7z"/>
	<path class="st4" d="M524.2,125.1h-24.5v-1.6h1.3c0.8,0,1.5-0.3,2-0.8c0.5-0.5,0.8-1.2,0.8-1.9V93.1c0-0.7-0.3-1.3-0.8-1.8
		c-0.5-0.5-1.2-0.8-2-0.8h-1.3V89h17.6c0.6,0,1.2,0,1.9-0.1c0.7-0.1,1.3-0.2,2-0.3c0.7-0.1,1.3-0.2,1.8-0.4c0.5-0.1,1-0.3,1.3-0.4
		v7.9h-1.6v-1.4c0-0.7-0.2-1.3-0.7-1.7s-1-0.7-1.8-0.8h-11.6v13.8h9.5c0.6,0,1.1-0.2,1.4-0.6c0.3-0.4,0.5-0.8,0.5-1.4v-1.3h1.6v9.2
		H520v-1.3c0-0.5-0.2-1-0.5-1.3c-0.3-0.4-0.8-0.6-1.4-0.7h-9.5V122h8.6c1.3,0,2.5-0.2,3.4-0.6c0.9-0.3,1.7-0.8,2.4-1.4
		c0.7-0.6,1.3-1.2,1.8-2c0.5-0.8,0.9-1.7,1.3-2.6h1.7L524.2,125.1z"/>
	<path class="st4" d="M543.7,88.9c3.8,0.1,6.8,1,9,2.7c2.2,1.7,3.4,4.2,3.4,7.2c0,1.2-0.2,2.3-0.6,3.4s-1,2.1-1.7,2.9
		c-0.7,0.9-1.6,1.6-2.6,2.3c-1,0.6-2.1,1.1-3.3,1.4c0.6,0.5,1.2,1.1,1.9,1.8c0.6,0.7,1.2,1.5,1.7,2.1v-0.1c0.5,0.8,1.1,1.5,1.6,2.2
		c0.5,0.6,1,1.3,1.6,2c0.6,0.7,1.2,1.4,1.8,2.1c0.6,0.6,1.1,1.2,1.6,1.7c0.5,0.5,1.1,1,1.6,1.4c0.6,0.4,1.2,0.7,1.8,0.9
		s1.4,0.3,2.3,0.3v1.6h-2.3c-1.7,0-3.1-0.2-4.3-0.5s-2.2-0.8-3.1-1.3c-0.9-0.5-1.6-1.1-2.2-1.7s-1.1-1.2-1.6-1.8
		c-0.2-0.2-0.6-0.8-1.2-1.6c-0.6-0.9-1.2-1.8-1.9-2.7l-2.6-3.7c-0.7-0.9-1.5-1.8-2.5-2.5c-0.9-0.8-2.5-1.1-4.6-1.1v12.7
		c0,0.7,0.3,1.3,0.8,1.9c0.5,0.5,1.2,0.8,2,0.8h1.3v1.6h-13v-1.6h1.3c0.8,0,1.5-0.2,2-0.8c0.5-0.5,0.8-1.1,0.8-1.8V92.9
		c0-0.7-0.3-1.3-0.8-1.8c-0.5-0.5-1.2-0.7-2-0.7h-1.3v-1.6L543.7,88.9z M540.9,106.3c0.4,0,1,0,1.6,0c0.6,0,1.3-0.1,2.1-0.1
		c0.8-0.1,1.6-0.2,2.3-0.5s1.4-0.8,2-1.4c0.6-0.6,1.1-1.5,1.5-2.7c0.3-0.8,0.4-1.6,0.4-2.6c0-0.2,0-0.4-0.1-0.5c0-2-0.7-3.6-2-4.8
		c-1.3-1.2-3-1.8-5.2-1.9c-0.8,0-1.6-0.1-2.3-0.1h-3.8v14.6H540.9z"/>
	<path class="st4" d="M605.6,82.8c3.2,0,6.1,0.5,8.8,1.5c2.6,1,4.9,2.4,6.8,4.3c1.9,1.8,3.4,4.1,4.4,6.6s1.6,5.5,1.6,8.6
		c0,3.2-0.5,6-1.6,8.6s-2.5,4.8-4.4,6.6c-1.9,1.8-4.2,3.3-6.8,4.3c-2.6,1-5.6,1.5-8.8,1.5h-20.4v-1.6h1.3c0.9,0,1.7-0.3,2.3-0.9
		c0.6-0.6,0.9-1.4,1-2.3V87.2c0-0.8-0.3-1.5-1-2c-0.7-0.5-1.4-0.8-2.3-0.8h-1.3v-1.6H605.6z M594.6,122h11.1c2.4,0,4.6-0.4,6.6-1.3
		c2-0.9,3.7-2.1,5.1-3.7c1.4-1.6,2.5-3.5,3.3-5.8s1.2-4.7,1.2-7.5c0-2.7-0.4-5.2-1.2-7.4c-0.8-2.2-1.9-4.2-3.3-5.8
		c-1.4-1.6-3.1-2.8-5.1-3.7s-4.2-1.3-6.6-1.3h-11.1V122z"/>
	<path class="st4" d="M658.1,120.1c0.5,1.1,1.1,1.9,1.9,2.4c0.7,0.5,1.4,0.7,2.1,0.7h1v1.6h-13v-1.6h1c0.4,0,0.8-0.2,1.2-0.5
		s0.6-0.8,0.6-1.4c0-0.3-0.1-0.6-0.2-1l-3.1-7.4h-14.1l-3.1,7.3c-0.2,0.4-0.2,0.7-0.2,1.1c0,0.6,0.2,1.1,0.5,1.4
		c0.4,0.3,0.8,0.5,1.2,0.5h1v1.6h-12.1v-1.6h1c0.7,0,1.4-0.2,2.2-0.7c0.8-0.5,1.4-1.3,2-2.4l12.1-25.9c0.4-0.8,0.8-1.6,1.1-2.4
		c0.3-0.7,0.5-1.4,0.8-2.1c0.2-0.7,0.3-1.3,0.4-1.8h1.3L658.1,120.1z M648.5,110.2l-5.8-14.2l-6,14.2H648.5z"/>
	<path class="st4" d="M710,120.5L710,120.5c0.2,0.9,0.6,1.6,1.3,2c0.7,0.5,1.4,0.7,2.3,0.7h1.4v1.6h-13.1v-1.5h1.4
		c0.4,0,0.8-0.1,1.1-0.4c0.3-0.3,0.5-0.6,0.5-1.1v-0.2c-0.5-3.9-1-7.6-1.5-11.2c-0.5-3.6-0.9-7.3-1.4-11.3l-10.3,20.3
		c0,0-0.1,0.3-0.3,0.7c-0.2,0.4-0.4,0.9-0.6,1.5c-0.2,0.6-0.5,1.3-0.7,2s-0.4,1.4-0.5,2.1h-1.3l-13.5-26l-2.5,21.8h0.1
		c0,0-0.1,0.1-0.1,0.1c0,0.4,0.2,0.8,0.5,1.1c0.3,0.3,0.7,0.5,1.2,0.5h1.4v1.5h-11.8v-1.6h1.3c0.9,0,1.7-0.2,2.4-0.8
		c0.7-0.5,1-1.2,1.2-2.1L673,88h1.3l15.1,29.1L704,88h1.3L710,120.5z"/>
	<path class="st4" d="M717.6,124.8v-1.6h1.3c0.9,0,1.7-0.3,2.4-0.8c0.7-0.5,1-1.1,1.1-1.9V93.1c-0.1-0.7-0.5-1.3-1.1-1.9
		c-0.7-0.5-1.5-0.8-2.4-0.8h-1.3v-1.6h14.2v1.6h-1.3c-0.9,0-1.6,0.3-2.3,0.8c-0.7,0.5-1,1.1-1.1,1.8v27.6c0,0.7,0.4,1.3,1.1,1.9
		c0.7,0.5,1.4,0.8,2.4,0.8h1.3v1.6H717.6z"/>
	<path class="st4" d="M769.8,120.1c0.5,1.1,1.1,1.9,1.9,2.4c0.7,0.5,1.4,0.7,2.1,0.7h1v1.6h-13v-1.6h1c0.4,0,0.8-0.2,1.2-0.5
		s0.6-0.8,0.6-1.4c0-0.3-0.1-0.6-0.2-1l-3.1-7.4h-14.1l-3.1,7.3c-0.2,0.4-0.2,0.7-0.2,1.1c0,0.6,0.2,1.1,0.5,1.4
		c0.4,0.3,0.8,0.5,1.2,0.5h1v1.6h-12.1v-1.6h1c0.7,0,1.4-0.2,2.2-0.7c0.8-0.5,1.4-1.3,2-2.4l12.1-25.9c0.4-0.8,0.8-1.6,1.1-2.4
		c0.3-0.7,0.5-1.4,0.8-2.1c0.2-0.7,0.3-1.3,0.4-1.8h1.3L769.8,120.1z M760.2,110.2l-5.8-14.2l-6,14.2H760.2z"/>
	<path class="st4" d="M819,88.9v1.6h-1.4c-0.8,0-1.4,0.2-1.9,0.7c-0.5,0.5-0.8,1.1-0.9,1.7v24.8c0,0.9,0,1.9,0.1,2.8
		c0.1,0.9,0.1,1.8,0.2,2.5c0.1,0.9,0.2,1.7,0.3,2.6H814l-29.7-28.1v23.2c0.1,0.7,0.4,1.3,0.9,1.8c0.5,0.5,1.1,0.8,1.9,0.8h1.5v1.6
		h-12v-1.6h1.5c0.7,0,1.3-0.3,1.9-0.8s0.8-1.1,0.9-1.8v-25c0-1,0-1.9-0.1-2.9c-0.1-0.9-0.2-1.8-0.2-2.5c-0.1-0.8-0.2-1.7-0.4-2.5
		h1.4l29.6,27.9v-23c-0.1-0.7-0.4-1.3-0.9-1.7c-0.5-0.5-1.1-0.7-1.9-0.7H807v-1.6L819,88.9z"/>
</g>
</svg>
