<?xml version="1.0" encoding="utf-8"?>
<!-- Generator: Adobe Illustrator 22.1.0, SVG Export Plug-In . SVG Version: 6.00 Build 0)  -->
<svg version="1.1" id="Layer_1" xmlns="http://www.w3.org/2000/svg" xmlns:xlink="http://www.w3.org/1999/xlink" x="0px" y="0px"
	 viewBox="0 0 216 216" style="enable-background:new 0 0 216 216;" xml:space="preserve">
<style type="text/css">
	.st0{fill:#FFFFFF;stroke:#A50000;stroke-width:0.5;stroke-miterlimit:10;}
	.st1{fill:#A50000;}
</style>
<circle class="st0" cx="108" cy="108" r="90"/>
<g>
	<path class="st1" d="M76.5,108.6c0.4,0.3,0.6,0.6,0.8,0.9c0.1,0.3,0.2,0.6,0.2,0.9c0,0.4-0.1,0.8-0.2,1.1s-0.4,0.6-0.7,0.8
		c-0.3,0.2-0.7,0.4-1.1,0.5c-0.4,0.1-0.9,0.2-1.4,0.2c-0.2,0-0.5,0-0.8,0c-0.3,0-0.6-0.1-0.9-0.1c-0.3-0.1-0.6-0.1-0.8-0.3
		s-0.5-0.2-0.7-0.4c0-0.1,0-0.2-0.1-0.3s0-0.2,0-0.3c0-0.2,0-0.5,0.1-0.7s0.1-0.5,0.2-0.8h0.4c0,0.1,0,0.2,0,0.2c0,0.1,0,0.1,0,0.2
		c0,0.6,0.2,1,0.6,1.4c0.4,0.3,1,0.5,1.6,0.5h0.1c0.3,0,0.6-0.1,0.9-0.1c0.3-0.1,0.5-0.2,0.7-0.4c0.2-0.1,0.4-0.3,0.5-0.5
		s0.2-0.4,0.2-0.7c0-0.5-0.2-0.9-0.7-1.2l-3.4-2.4c-0.4-0.3-0.6-0.6-0.8-0.9c-0.2-0.3-0.2-0.6-0.2-0.9c0-0.3,0.1-0.6,0.2-0.9
		c0.1-0.3,0.4-0.5,0.6-0.8c0.3-0.2,0.6-0.4,1-0.6c0.4-0.1,0.9-0.2,1.4-0.2c0.2,0,0.5,0,0.8,0s0.5,0.1,0.8,0.1h0.9v1.9h-0.5
		c0-0.4-0.2-0.8-0.5-1c-0.4-0.2-0.8-0.4-1.3-0.4c-0.3,0-0.6,0-0.8,0.1s-0.5,0.2-0.6,0.3c-0.2,0.1-0.3,0.3-0.4,0.5
		c-0.1,0.2-0.1,0.4-0.1,0.6c0,0.2,0,0.4,0.1,0.6c0.1,0.2,0.3,0.4,0.6,0.6L76.5,108.6z"/>
</g>
<g>
	<path class="st1" d="M108.9,70.1c1,0,1.8,0.2,2.3,0.7c0.6,0.5,0.8,1.2,0.8,2c0,0.4-0.1,0.8-0.3,1.1s-0.4,0.6-0.7,0.8
		c-0.3,0.2-0.6,0.4-1,0.5s-0.7,0.2-1.1,0.2c-0.2,0-0.5,0-0.7-0.1c-0.2-0.1-0.4-0.2-0.7-0.3v-0.2c0,0,0.1,0,0.2,0c0.1,0,0.2,0,0.4,0
		c0.2,0,0.4,0,0.6,0c0.2,0,0.4-0.1,0.7-0.2c0.2-0.1,0.4-0.3,0.6-0.4c0.2-0.2,0.3-0.4,0.4-0.7v0c0-0.2,0.1-0.4,0.1-0.7v-0.1
		c0-0.6-0.2-1.1-0.5-1.4c-0.3-0.4-0.8-0.5-1.3-0.5h-1.6v8c0,0.2,0.1,0.4,0.3,0.5c0.1,0.1,0.3,0.2,0.6,0.2h0.3v0.4H105v-0.4h0.3
		c0.2,0,0.4-0.1,0.6-0.2c0.1-0.1,0.2-0.3,0.3-0.5v-7.6c0-0.2-0.1-0.3-0.3-0.5c-0.2-0.1-0.3-0.2-0.5-0.2H105v-0.4H108.9z"/>
</g>
<g>
	<path class="st1" d="M110.4,141.7c0.4,0.3,0.6,0.6,0.8,0.9c0.1,0.3,0.2,0.6,0.2,0.9c0,0.4-0.1,0.8-0.2,1.1s-0.4,0.6-0.7,0.8
		s-0.7,0.4-1.1,0.5c-0.4,0.1-0.9,0.2-1.4,0.2c-0.2,0-0.5,0-0.8,0c-0.3,0-0.6-0.1-0.9-0.1c-0.3-0.1-0.6-0.1-0.8-0.3s-0.5-0.2-0.7-0.4
		c0-0.1,0-0.2-0.1-0.3s0-0.2,0-0.3c0-0.2,0-0.5,0.1-0.7s0.1-0.5,0.2-0.8h0.4c0,0.1,0,0.2,0,0.2c0,0.1,0,0.1,0,0.2
		c0,0.6,0.2,1,0.6,1.4c0.4,0.3,1,0.5,1.6,0.5h0.1c0.3,0,0.6-0.1,0.9-0.1c0.3-0.1,0.5-0.2,0.7-0.4c0.2-0.1,0.4-0.3,0.5-0.5
		s0.2-0.4,0.2-0.7c0-0.5-0.2-0.9-0.7-1.2l-3.4-2.4c-0.4-0.3-0.6-0.6-0.8-0.9c-0.2-0.3-0.2-0.6-0.2-0.9c0-0.3,0.1-0.6,0.2-0.9
		s0.4-0.5,0.6-0.8c0.3-0.2,0.6-0.4,1-0.6c0.4-0.1,0.9-0.2,1.4-0.2c0.2,0,0.5,0,0.8,0c0.3,0,0.5,0.1,0.8,0.1h0.9v1.9h-0.5
		c0-0.4-0.2-0.8-0.5-1c-0.4-0.2-0.8-0.4-1.3-0.4c-0.3,0-0.6,0-0.8,0.1c-0.2,0.1-0.5,0.2-0.6,0.3c-0.2,0.1-0.3,0.3-0.4,0.5
		c-0.1,0.2-0.1,0.4-0.1,0.6c0,0.2,0,0.4,0.1,0.6c0.1,0.2,0.3,0.4,0.6,0.6L110.4,141.7z"/>
</g>
<g>
	<path class="st1" d="M141.1,103c0.7,0,1.4,0.1,2,0.3c0.6,0.2,1.1,0.6,1.6,1c0.4,0.4,0.8,0.9,1,1.5c0.2,0.6,0.4,1.3,0.4,2
		s-0.1,1.4-0.4,2c-0.2,0.6-0.6,1.1-1,1.5c-0.4,0.4-1,0.8-1.6,1s-1.3,0.3-2,0.3h-4.8v-0.4h0.3c0.2,0,0.4-0.1,0.5-0.2
		c0.1-0.1,0.2-0.3,0.2-0.5V104c0-0.2-0.1-0.3-0.2-0.5c-0.2-0.1-0.3-0.2-0.5-0.2h-0.3V103H141.1z M138.6,112.1h2.6
		c0.6,0,1.1-0.1,1.5-0.3s0.9-0.5,1.2-0.9c0.3-0.4,0.6-0.8,0.8-1.3c0.2-0.5,0.3-1.1,0.3-1.7c0-0.6-0.1-1.2-0.3-1.7s-0.4-1-0.8-1.3
		s-0.7-0.7-1.2-0.9c-0.5-0.2-1-0.3-1.5-0.3h-2.6V112.1z"/>
</g>
<g id="LINE_130_">
	<path class="st1" d="M26.7,88.9l24.7,24.7h10V99.7L32.9,71.3C30.2,76.9,28.1,82.8,26.7,88.9"/>
</g>
<g id="LINE_129_">
	<path class="st1" d="M85.1,92.9c-1.2-1.2-2.2-2.2-2.2-2.2V28.3c5.4-1.7,11-2.9,16.6-3.4v62.7c-4.4,1.8-8.1,5.1-10.6,9.2
		C89,96.8,86.8,94.6,85.1,92.9z"/>
</g>
<g id="LINE_125_">
	<path class="st1" d="M52.6,64.6c13,13,34.9,34.9,34.9,34.9H64L33.9,69.4c2.6-5,5.8-9.8,9.3-14.2C43.2,55.2,47.1,59.1,52.6,64.6z"/>
</g>
<g id="LINE_124_">
	<path class="st1" d="M41.1,113.5c4.1,0,7.3,0,7.3,0L26.1,91.3c-1.5,7.3-2,14.8-1.5,22.3C24.6,113.5,34.1,113.5,41.1,113.5z"/>
</g>
<g id="LINE_122_">
	<path class="st1" d="M74.6,82.4C69.8,77.6,64,71.8,64,71.8V37c5.3-3.3,10.9-5.9,16.8-8v59.7C80.8,88.6,78,85.8,74.6,82.4z"/>
</g>
<g id="LINE_121_">
	<path class="st1" d="M56.8,64.6C51.8,59.6,45.1,53,45.1,53c4.9-5.6,10.6-10.6,16.8-14.7v31.5C61.9,69.8,59.7,67.5,56.8,64.6z"/>
</g>
<g id="ARC_48_">
	<path class="st1" d="M88.8,118.9c-0.5-0.8-0.9-1.6-1.2-2.5H24.9c0.6,5.6,1.7,11.2,3.4,16.6h62.4l6.1-6.1
		C93.4,125.1,90.7,122.3,88.8,118.9z"/>
</g>
<g id="LINE_111_">
	<path class="st1" d="M88.9,189.3l24.7-24.7v-10H99.7l-28.4,28.4C76.9,185.8,82.8,187.9,88.9,189.3"/>
</g>
<g id="LINE_110_">
	<path class="st1" d="M113.5,174.9c0,7,0,16.4,0,16.4c-7.5,0.5-14.9,0-22.3-1.5l22.3-22.3C113.5,167.6,113.5,170.8,113.5,174.9z"/>
</g>
<g id="LINE_105_">
	<path class="st1" d="M29,135.2h59.7L71.8,152H37C33.7,146.7,31,141.1,29,135.2"/>
</g>
<g id="LINE_104_">
	<path class="st1" d="M64.6,159.2c2.9-2.9,5.2-5.2,5.2-5.2H38.3c4.1,6.2,9.1,11.9,14.7,16.8C53,170.9,59.6,164.2,64.6,159.2z"/>
</g>
<g id="ARC_44_">
	<path class="st1" d="M69.4,182.1c-5-2.6-9.8-5.8-14.2-9.3l44.3-44.3V152L69.4,182.1"/>
</g>
<g id="LINE_100_">
	<path class="st1" d="M130.9,123.1c1.2,1.2,2.2,2.2,2.2,2.2v62.4c-5.4,1.7-11,2.9-16.6,3.4v-62.7c4.4-1.8,8.1-5.1,10.6-9.2
		C127,119.2,129.2,121.4,130.9,123.1z"/>
</g>
<g id="LINE_97_">
	<path class="st1" d="M138.7,116.5c6.3,0,13.3,0,13.3,0l30.1,30.1c-2.6,5-5.8,9.8-9.3,14.2l-44.3-44.3
		C128.4,116.5,133.3,116.5,138.7,116.5z"/>
</g>
<g id="LINE_94_">
	<path class="st1" d="M159.5,102.5c2.6,0,5.2,0,5.2,0l24.7,24.7c-1.4,6.1-3.5,11.9-6.2,17.5l-28.4-28.4v-13.8
		C154.7,102.5,157.1,102.5,159.5,102.5z"/>
</g>
<g id="LINE_90_">
	<path class="st1" d="M174.9,102.5c7,0,16.4,0,16.4,0c0.5,7.5,0,14.9-1.5,22.3l-22.3-22.3C167.6,102.5,170.8,102.5,174.9,102.5z"/>
</g>
<g id="LINE_88_">
	<path class="st1" d="M141.4,133.6c4.8,4.8,10.6,10.6,10.6,10.6V179c-5.3,3.3-10.9,5.9-16.8,8v-59.7
		C135.2,127.4,138,130.2,141.4,133.6z"/>
</g>
<g id="LINE_87_">
	<path class="st1" d="M159.2,151.4c4.9,4.9,11.6,11.6,11.6,11.6c-4.9,5.6-10.6,10.6-16.8,14.7v-31.5
		C154.1,146.2,156.3,148.5,159.2,151.4z"/>
</g>
<g id="LINE_81_">
	<path class="st1" d="M173.4,56c1.5,1.9,3,3.9,4.3,5.9h-31.5L163,45.1C166.8,48.4,170.3,52.1,173.4,56z"/>
</g>
<g id="LINE_76_">
	<path class="st1" d="M113.1,37.8c5.7-5.7,11.6-11.6,11.6-11.6c-7.3-1.5-14.8-2-22.3-1.5v23.8C102.5,48.4,107.7,43.2,113.1,37.8z"/>
</g>
<g id="LINE_74_">
	<path class="st1" d="M152.5,37.3c2.9,1.8,5.7,3.8,8.3,6l-44.3,44.3V64l30.1-30.1C148.6,34.9,150.6,36.1,152.5,37.3z"/>
</g>
<g id="LINE_72_">
	<path class="st1" d="M141,36.6c-7.7,7.7-24.7,24.7-24.7,24.7h-13.8v-10l24.7-24.7c6.1,1.4,11.9,3.5,17.5,6.2
		C144.7,32.9,143.2,34.4,141,36.6z"/>
</g>
<g id="LINE_69_">
	<path class="st1" d="M125.3,82.9h62.4c1.7,5.4,2.9,11,3.4,16.6h-62.7c-1.8-4.4-5.1-8.1-9.2-10.6L125.3,82.9"/>
</g>
<g id="ARC_32_">
	<path class="st1" d="M179,64c3.3,5.3,5.9,10.9,8,16.8h-59.7L144.2,64H179"/>
</g>
<path class="st1" d="M108,19.6c-48.8,0-88.4,39.6-88.4,88.4s39.6,88.4,88.4,88.4s88.4-39.6,88.4-88.4S156.8,19.6,108,19.6z
	 M108,193.6c-47.3,0-85.6-38.3-85.6-85.6S60.7,22.4,108,22.4s85.6,38.3,85.6,85.6S155.3,193.6,108,193.6z"/>
<path class="st1" d="M108,88c-11.1,0-20,9-20,20c0,11.1,9,20,20,20s20-9,20-20C128,96.9,119.1,88,108,88z M108,126
	c-9.9,0-18-8-18-18c0-9.9,8-18,18-18s18,8,18,18C126,117.9,117.9,126,108,126z"/>
</svg>
